<svg width="346" height="346" viewBox="0 0 346 346" fill="none" xmlns="http://www.w3.org/2000/svg">
<g clip-path="url(#clip0_103_39)">
<mask id="mask0_103_39" style="mask-type:luminance" maskUnits="userSpaceOnUse" x="0" y="0" width="346" height="346">
<path d="M346 0H0V346H346V0Z" fill="white"/>
</mask>
<g mask="url(#mask0_103_39)">
<path d="M173 173.5C268.102 173.5 345.23 250.462 345.499 345.5H325.739C325.47 261.374 257.189 193.26 173 193.26C88.8107 193.26 20.5304 261.374 20.2608 345.5H0.500709C0.770367 250.462 77.8976 173.5 173 173.5ZM0.500709 0.5H20.2608C20.5304 84.6261 88.8107 152.74 173 152.74C257.189 152.74 325.47 84.6261 325.739 0.5H345.499C345.23 95.5392 268.102 172.5 173 172.5C77.8976 172.5 0.770365 95.5392 0.500709 0.5ZM173 130.98C100.829 130.98 42.2904 72.6082 42.0209 0.5H61.7811C62.0504 61.6951 111.742 111.22 173 111.22C234.258 111.22 283.95 61.6951 284.219 0.5H303.979C303.71 72.6082 245.172 130.98 173 130.98ZM173 89.46C123.759 89.46 83.8105 49.6773 83.5414 0.5H103.302C103.571 38.7641 134.673 69.7 173 69.7C211.327 69.7 242.429 38.7641 242.698 0.5H262.459C262.19 49.6773 222.241 89.46 173 89.46ZM173 215.02C245.172 215.02 303.71 273.391 303.979 345.5H284.219C283.95 284.305 234.258 234.78 173 234.78C111.742 234.78 62.0504 284.305 61.7811 345.5H42.0209C42.2904 273.391 100.829 215.02 173 215.02ZM173 256.54C222.241 256.54 262.19 296.322 262.459 345.5H242.698C242.429 307.237 211.327 276.3 173 276.3C134.673 276.3 103.571 307.237 103.302 345.5H83.5414C83.8105 296.322 123.759 256.54 173 256.54Z" fill="#0E0E10" stroke="#1C1C21"/>
</g>
</g>
<defs>
<clipPath id="clip0_103_39">
<rect width="346" height="346" fill="white"/>
</clipPath>
</defs>
</svg>
